<?xml version="1.0" standalone="no"?>
<svg xmlns:xlink="http://www.w3.org/1999/xlink" id="wave" style="transform:rotate(0deg); transition: 0.3s" viewBox="0 0 1440 340" version="1.1" xmlns="http://www.w3.org/2000/svg"><defs><linearGradient id="sw-gradient-0" x1="0" x2="0" y1="1" y2="0"><stop stop-color="rgba(47, 69, 130, 1)" offset="0%"/><stop stop-color="rgba(75, 151, 204, 1)" offset="100%"/></linearGradient></defs><path style="transform:translate(0, 0px); opacity:1" fill="url(#sw-gradient-0)" d="M0,170L48,141.7C96,113,192,57,288,51C384,45,480,91,576,130.3C672,170,768,204,864,187C960,170,1056,102,1152,62.3C1248,23,1344,11,1440,28.3C1536,45,1632,91,1728,90.7C1824,91,1920,45,2016,62.3C2112,79,2208,159,2304,209.7C2400,261,2496,283,2592,255C2688,227,2784,147,2880,130.3C2976,113,3072,159,3168,175.7C3264,193,3360,181,3456,153C3552,125,3648,79,3744,79.3C3840,79,3936,125,4032,170C4128,215,4224,261,4320,255C4416,249,4512,193,4608,175.7C4704,159,4800,181,4896,175.7C4992,170,5088,136,5184,124.7C5280,113,5376,125,5472,124.7C5568,125,5664,113,5760,124.7C5856,136,5952,170,6048,158.7C6144,147,6240,91,6336,79.3C6432,68,6528,102,6624,102C6720,102,6816,68,6864,51L6912,34L6912,340L6864,340C6816,340,6720,340,6624,340C6528,340,6432,340,6336,340C6240,340,6144,340,6048,340C5952,340,5856,340,5760,340C5664,340,5568,340,5472,340C5376,340,5280,340,5184,340C5088,340,4992,340,4896,340C4800,340,4704,340,4608,340C4512,340,4416,340,4320,340C4224,340,4128,340,4032,340C3936,340,3840,340,3744,340C3648,340,3552,340,3456,340C3360,340,3264,340,3168,340C3072,340,2976,340,2880,340C2784,340,2688,340,2592,340C2496,340,2400,340,2304,340C2208,340,2112,340,2016,340C1920,340,1824,340,1728,340C1632,340,1536,340,1440,340C1344,340,1248,340,1152,340C1056,340,960,340,864,340C768,340,672,340,576,340C480,340,384,340,288,340C192,340,96,340,48,340L0,340Z"/></svg>